<?xml version="1.0" encoding="UTF-8"?>
<svg xmlns="http://www.w3.org/2000/svg" width="927" height="600" viewBox="160 292 927 600" fill="none">
  <defs>
    <linearGradient id="gBlue" x1="557" y1="319" x2="197" y2="714" gradientUnits="userSpaceOnUse">
      <stop offset="0" stop-color="#1380f1"/>
      <stop offset="0.15" stop-color="#1c94f8"/>
      <stop offset="0.33" stop-color="#1eb0fa"/>
      <stop offset="0.5" stop-color="#23cffb"/>
      <stop offset="0.65" stop-color="#2deafc"/>
      <stop offset="0.85" stop-color="#32f0fd"/>
      <stop offset="1" stop-color="#36f2fd"/>
    </linearGradient>
    <linearGradient id="gOrange" x1="690" y1="865" x2="1000" y2="470" gradientUnits="userSpaceOnUse">
      <stop offset="0" stop-color="#fb6402"/>
      <stop offset="0.15" stop-color="#fc7802"/>
      <stop offset="0.33" stop-color="#fd9c02"/>
      <stop offset="0.5" stop-color="#fda801"/>
      <stop offset="0.65" stop-color="#fdc001"/>
      <stop offset="0.85" stop-color="#fdc801"/>
      <stop offset="1" stop-color="#fed608"/>
    </linearGradient>
    <linearGradient id="gWhite" x1="850" y1="320" x2="380" y2="860" gradientUnits="userSpaceOnUse">
      <stop offset="0" stop-color="#f3fafe"/>
      <stop offset="0.38" stop-color="#dbf0fc"/>
      <stop offset="1" stop-color="#f0f9fe"/>
    </linearGradient>
  </defs>

  <path d="M820 362 L885 362 L1049.7 550.8 Q1077 591 1050.1 633.7 L864 850 Q847 868 818 868 L693 868 Q677 868 683 840 L892 591 L786 470 L877 362 Z" fill="url(#gOrange)"/>
  <path d="M427 822 L362 822 L197.3 633.2 Q170 593 196.9 550.3 L383 334 Q400 316 429 316 L554 316 Q570 316 564 344 L355 593 L461 714 L370 822 Z" fill="url(#gBlue)"/>
  <path d="M809 316 L923 316 L688 580 L436 868 L326 868 Z" fill="url(#gWhite)"/>
</svg>
